# xmcd
#
# Track frame offsets: 
#        150
#        12057
#        24050
#        37575
#        50060
#        72357
#        84190
#        99380
#        117642
#        127032
#        141322
#        161790
#        181757
#        194537
#        206442
#        238145
#        251325
#        261700
#        277960
#        290647
#        303385
#
# Disc length: 4338 seconds
#
# Revision: 0
# Processed by: cddbd v1.5.2PL0 Copyright (c) Steve Scherf et al.
# Submitted via: ExactAudioCopy v0.99pb4
#
DISCID=2d10f015
DTITLE=Nina Simone - Soulful Anthology
DYEAR=2004
DGENRE=Soul
TTITLE0=See-Line Woman
TTITLE1=Old Jim Crow
TTITLE2=Gimme Some
TTITLE3=Don't Let Me Be Misunderstood
TTITLE4=Ballad Of Hollis Brown
TTITLE5=I Loved Your Lovin' Ways
TTITLE6=Be My Husband
TTITLE7=Chilly Winds Don't Blow
TTITLE8=Brown Eyed Handsome Man
TTITLE9=Tell Me More And More And Then Some
TTITLE10=Nearer Blessed Lord
TTITLE11=Four Women
TTITLE12=Chauffeur
TTITLE13=Break Down And Let It All Out
TTITLE14=Go Limp
TTITLE15=Feeling Good
TTITLE16=Laziest Gal in Town
TTITLE17=Come Ye
TTITLE18=Take Me To The Water
TTITLE19=I'm Going Back Home
TTITLE20=Mississippi Goddam
EXTD=
EXTT0=
EXTT1=
EXTT2=
EXTT3=
EXTT4=
EXTT5=
EXTT6=
EXTT7=
EXTT8=
EXTT9=
EXTT10=
EXTT11=
EXTT12=
EXTT13=
EXTT14=
EXTT15=
EXTT16=
EXTT17=
EXTT18=
EXTT19=
EXTT20=
PLAYORDER=
